<svg width="24" height="24" viewBox="0 0 24 24" fill="none" xmlns="http://www.w3.org/2000/svg">
<path d="M17.25 0H6.75C3 0 0 3 0 6.75V11.25V17.25C0 21 3 24 6.75 24H17.25C21 24 24 21 24 17.25V11.25V6.75C24 3 21 0 17.25 0Z" fill="#E61F5A"/>
<path d="M12 19C15.866 19 19 15.866 19 12C19 8.13401 15.866 5 12 5C8.13401 5 5 8.13401 5 12C5 15.866 8.13401 19 12 19Z" fill="white"/>
<path d="M20 4C20 4.55228 19.5523 5 19 5C18.4477 5 18 4.55228 18 4C18 3.44772 18.4477 3 19 3C19.5523 3 20 3.44772 20 4Z" fill="white" stroke="white"/>
<circle cx="12" cy="12" r="5" fill="#E61F5A"/>
</svg>
