<svg width="24" height="25" viewBox="0 0 24 25" fill="none" xmlns="http://www.w3.org/2000/svg">
<g clip-path="url(#clip0_964_17693)">
<path d="M23.71 2.11308C23.575 1.98413 23.4045 1.89484 23.2185 1.85573C23.0325 1.81662 22.8388 1.8293 22.66 1.89228L0.660001 9.57228C0.470269 9.64137 0.306921 9.76423 0.191652 9.92456C0.0763829 10.0849 0.0146484 10.2751 0.0146484 10.4699C0.0146484 10.6647 0.0763829 10.8549 0.191652 11.0152C0.306921 11.1755 0.470269 11.2984 0.660001 11.3675L10.26 15.0539L14.1 24.2699C14.1721 24.444 14.2958 24.5941 14.4557 24.7016C14.6157 24.809 14.8049 24.8692 15 24.8747C15.2021 24.8707 15.3982 24.808 15.5624 24.6949C15.7266 24.5818 15.8513 24.4236 15.92 24.2411L23.92 3.12108C23.9881 2.95123 24.0046 2.76629 23.9674 2.58782C23.9302 2.40935 23.8409 2.24471 23.71 2.11308V2.11308ZM15 21.2267L12.21 14.5067L17 9.90828L15.59 8.55468L10.76 13.1915L3.8 10.4747L21.33 4.39788L15 21.2267Z" fill="#8EC2F2"/>
</g>
<defs>
<clipPath id="clip0_964_17693">
<rect width="24" height="24" fill="white" transform="translate(0 0.874634)"/>
</clipPath>
</defs>
</svg>
