<svg width="24" height="25" viewBox="0 0 24 25" fill="none" xmlns="http://www.w3.org/2000/svg">
<path d="M18.5786 13.4561C18.4614 13.3436 18.3222 13.2544 18.169 13.1935C18.0158 13.1327 17.8516 13.1013 17.6858 13.1013C17.5199 13.1013 17.3557 13.1327 17.2025 13.1935C17.0493 13.2544 16.9101 13.3436 16.793 13.4561L14.7801 15.3851C13.8469 15.1188 12.1055 14.5138 11.0018 13.4561C9.89808 12.3985 9.26668 10.7297 8.98887 9.83541L11.0018 7.90646C11.1191 7.79418 11.2123 7.66082 11.2758 7.51401C11.3393 7.3672 11.372 7.20983 11.372 7.0509C11.372 6.89197 11.3393 6.7346 11.2758 6.58779C11.2123 6.44098 11.1191 6.30762 11.0018 6.19534L5.95058 1.35481C5.8334 1.24234 5.69424 1.1531 5.54104 1.09222C5.38785 1.03134 5.22363 1 5.05778 1C4.89193 1 4.72771 1.03134 4.57451 1.09222C4.42132 1.1531 4.28215 1.24234 4.16498 1.35481L0.740273 4.63669C0.26041 5.09654 -0.00982893 5.72823 0.000273452 6.37323C0.0293178 8.09645 0.505393 14.0818 5.42778 18.7989C10.3502 23.5159 16.596 23.971 18.3954 24H18.4308C19.0976 24 19.7277 23.7483 20.205 23.2909L23.6297 20.009C23.7471 19.8967 23.8402 19.7633 23.9038 19.6165C23.9673 19.4697 24 19.3124 24 19.1534C24 18.9945 23.9673 18.8371 23.9038 18.6903C23.8402 18.5435 23.7471 18.4101 23.6297 18.2979L18.5786 13.4561ZM18.4182 21.5785C16.8422 21.5531 11.4501 21.1477 7.21337 17.0865C2.9628 13.0132 2.55112 7.82781 2.52587 6.34781L5.05778 3.9215L8.32337 7.0509L6.69058 8.6156C6.54215 8.75773 6.43302 8.93306 6.37305 9.12575C6.31308 9.31844 6.30416 9.52242 6.3471 9.71924C6.3774 9.85841 7.11866 13.1584 9.21491 15.1673C11.3112 17.1761 14.7548 17.8864 14.9 17.9155C15.1053 17.9578 15.3184 17.9499 15.5196 17.8926C15.7209 17.8353 15.9039 17.7304 16.0517 17.5875L17.6858 16.0228L20.9514 19.1522L18.4182 21.5785V21.5785Z" fill="#8EC2F2"/>
</svg>
