<svg width="73" height="72" viewBox="0 0 73 72" fill="none" xmlns="http://www.w3.org/2000/svg">
<g clip-path="url(#clip0_964_17616)">
<path d="M71.6686 0.873659C71.2633 0.470699 70.7512 0.191705 70.1925 0.0694792C69.6338 -0.0527461 69.0519 -0.0131216 68.515 0.183694L2.43831 24.1825C1.86845 24.3983 1.37784 24.7823 1.03163 25.2833C0.685419 25.7843 0.5 26.3786 0.5 26.9873C0.5 27.596 0.685419 28.1904 1.03163 28.6914C1.37784 29.1923 1.86845 29.5763 2.43831 29.7922L31.2718 41.3116L42.8051 70.1101C43.0218 70.6543 43.3933 71.1232 43.8736 71.459C44.3539 71.7948 44.9222 71.9829 45.5083 72C46.1152 71.9876 46.7042 71.7917 47.1975 71.4383C47.6907 71.0848 48.0652 70.5904 48.2715 70.0201L72.2994 4.0235C72.504 3.49275 72.5533 2.91484 72.4417 2.35715C72.33 1.79946 72.0619 1.28497 71.6686 0.873659V0.873659ZM45.5083 60.6006L37.1286 39.6017L51.5152 25.2324L47.2803 21.0026L32.7735 35.4919L11.8692 27.0023L64.5203 8.01329L45.5083 60.6006Z" fill="#0D5C63"/>
</g>
<defs>
<clipPath id="clip0_964_17616">
<rect width="72" height="72" fill="white" transform="translate(0.5)"/>
</clipPath>
</defs>
</svg>
