<svg width="73" height="72" viewBox="0 0 73 72" fill="none" xmlns="http://www.w3.org/2000/svg">
<g clip-path="url(#clip0_964_17595)">
<path d="M56.2357 38.9931C55.8842 38.641 55.4667 38.3617 55.0071 38.1711C54.5475 37.9805 54.0548 37.8824 53.5573 37.8824C53.0597 37.8824 52.5671 37.9805 52.1075 38.1711C51.6479 38.3617 51.2304 38.641 50.8789 38.9931L44.8402 45.0315C42.0406 44.1981 36.8164 42.304 33.5053 38.9931C30.1942 35.6822 28.3001 30.4582 27.4666 27.6587L33.5053 21.6202C33.8574 21.2687 34.1368 20.8512 34.3274 20.3917C34.518 19.9321 34.6161 19.4395 34.6161 18.942C34.6161 18.4444 34.518 17.9518 34.3274 17.4922C34.1368 17.0326 33.8574 16.6152 33.5053 16.2637L18.3517 1.11072C18.0002 0.758615 17.5827 0.479278 17.1231 0.288689C16.6635 0.0981005 16.1709 0 15.6733 0C15.1758 0 14.6831 0.0981005 14.2235 0.288689C13.764 0.479278 13.3465 0.758615 12.9949 1.11072L2.72082 11.3844C1.28123 12.8239 0.470513 14.8014 0.50082 16.8205C0.587953 22.215 2.01618 40.9516 16.7833 55.7182C31.5505 70.4847 50.2879 71.9091 55.6864 72H55.7924C57.7927 72 59.6831 71.212 61.1151 69.7801L71.3892 59.5064C71.7414 59.1549 72.0207 58.7374 72.2113 58.2778C72.4019 57.8183 72.5 57.3256 72.5 56.8281C72.5 56.3306 72.4019 55.8379 72.2113 55.3784C72.0207 54.9188 71.7414 54.5013 71.3892 54.1498L56.2357 38.9931ZM55.7545 64.4197C51.0266 64.3402 34.8502 63.0711 22.1401 50.3578C9.38839 37.6066 8.15338 21.374 8.07761 16.741L15.6733 9.14557L25.4701 18.942L20.5717 23.8401C20.1264 24.2851 19.7991 24.8339 19.6191 25.4371C19.4392 26.0403 19.4125 26.6789 19.5413 27.295C19.6322 27.7307 21.856 38.0612 28.1447 44.3497C34.4335 50.6381 44.7644 52.8618 45.2001 52.9527C45.8159 53.0852 46.4551 53.0606 47.0588 52.8812C47.6626 52.7018 48.2116 52.3733 48.6551 51.9261L53.5573 47.0279L63.3541 56.8243L55.7545 64.4197Z" fill="#0D5C63"/>
</g>
<defs>
<clipPath id="clip0_964_17595">
<rect width="72" height="72" fill="white" transform="translate(0.5)"/>
</clipPath>
</defs>
</svg>
