<svg width="73" height="72" viewBox="0 0 73 72" fill="none" xmlns="http://www.w3.org/2000/svg">
<path d="M36.5 42C44.4968 42 51 35.721 51 28C51 20.279 44.4968 14 36.5 14C28.5032 14 22 20.279 22 28C22 35.721 28.5032 42 36.5 42ZM36.5 21C40.4984 21 43.75 24.1395 43.75 28C43.75 31.8605 40.4984 35 36.5 35C32.5016 35 29.25 31.8605 29.25 28C29.25 24.1395 32.5016 21 36.5 21Z" fill="white"/>
<path d="M34.3061 71.331C34.9175 71.7661 35.6501 72 36.4014 72C37.1527 72 37.8853 71.7661 38.4967 71.331C39.595 70.557 65.4073 51.9844 65.3025 28.8002C65.3025 12.9205 52.3367 0 36.4014 0C20.4661 0 7.50032 12.9205 7.50032 28.7822C7.39555 51.9844 33.2078 70.557 34.3061 71.331ZM36.4014 7.20006C48.3556 7.20006 58.0772 16.8877 58.0772 28.8182C58.1531 44.7952 42.225 59.1413 36.4014 63.8465C30.5815 59.1377 14.6497 44.788 14.7256 28.8002C14.7256 16.8877 24.4472 7.20006 36.4014 7.20006Z" fill="white"/>
</svg>
